<?xml version="1.0" encoding="utf-8"?>
<!-- Generator: Adobe Illustrator 24.2.1, SVG Export Plug-In . SVG Version: 6.00 Build 0)  -->
<svg version="1.1" id="Capa_1" xmlns="http://www.w3.org/2000/svg" xmlns:xlink="http://www.w3.org/1999/xlink" x="0px" y="0px"
	 viewBox="0 0 341.1 200" style="enable-background:new 0 0 341.1 200;" xml:space="preserve">
<style type="text/css">
	.st0{fill:#003B72;}
	.st1{fill:#3F3F3F;}
</style>
<g id="Capa_2_1_">
	<g id="Capa_1-2">
		<path class="st0" d="M33.8,115.8c2.3,1.8,5,3,7.8,3.7V53.6L0,88.5v66.3h5.8c9-13.9,5.4-23,5.4-23c2.6,3.4,8.2,3.5,8.2,3.5
			c-2.3,6.6-4,7.6-6.3,11.8c-1.3,2.3-1.7,5.1-1.2,7.7h25.7c1-1.9,2.9-6.2,1.4-7.9c-2-2.2-6-1.8-7.7-7.7c0.8-0.3,1.5-0.7,2.2-1.3
			c0,0,2.2,2.9,8.2,4.5v-1.4c-6.1-1.9-6.9-4.2-6.9-4.2s4-4.3,3.2-9.2c-0.5,8.1-8.5,10.5-10.3,13.3s-0.3,7.4-0.3,7.4h-5.5
			c3.8-7.2,3.5-9.7,1.2-17.1c-2.3-7.4,3.1-14,3.1-14c-3.9,3.6-5.5,9-4.3,14.2c0.4,1.1,0.6,2.3,0.8,3.4C9.9,134,6.6,126,8.1,116.8
			c1.5-8.8,3.9-15,10.3-20.5c3.8-2.4,3.5-5,3.5-5c0.9-1.2,2.4-1.8,3.9-1.5c2.2,0.3,3.4-2,3.4-2c3.7-0.2,4.9,0.8,4.9,0.8l0.6,3
			c-0.6-0.8-1.5-1.3-2.4-1.4c-1.1,0.1-2.2,0.7-2.8,1.6c0.8-0.7,1.8-1,2.9-1c0.9,0.1,1.8,0.7,2.3,1.5c-0.7,0.8-1.1,1.9-1,3
			c0.4,3.8-1.5,5.2-2.9,6.5c-1,0.2-2,0.4-3,0.4c0,0-10.7,0.2-6.6,11.9c0,0-2.8-9.7,6.4-10.9c0.6-0.1,1.5-0.3,1.5-0.3
			C26.2,110.8,33.8,115.8,33.8,115.8z M17.8,95.3c-2.9-0.6-5.1-2.8-5.8-5.7c-0.8-7.2,6.5-8.5,6.5-8.5s-4.2,2-3.9,5.2
			c0.2,2.6,4.2,3.1,5.2,3.2c1.1,0.2,1.1,2,1.1,2C20.5,94.2,17.8,95.3,17.8,95.3L17.8,95.3z M35.5,92.6c4.5,0.2,3.2-5.6,3.2-5.6
			s2.9,6.3-2.9,8.5c-0.3,0.1-0.5,0.2-0.8,0.4C34.8,96,34.7,96,34.6,96C34.1,93.2,35.5,92.6,35.5,92.6z"/>
		<polygon class="st0" points="44.9,154.8 71.8,154.8 71.8,44.8 44.9,79.8 		"/>
		<path class="st1" d="M89.8,124.4h17.9v4.8H95.5v8.5H107v4.7H95.5v12.4h-5.7V124.4z"/>
		<path class="st1" d="M114.3,124.4h5.7v30.4h-5.7L114.3,124.4z"/>
		<path class="st1" d="M128.3,124.4h9.7c9.2,0,16.4,5.4,16.4,15.1s-7,15.3-16.4,15.3h-9.7V124.4z M148.5,139.5
			c0-6.4-3.9-10.4-10.2-10.4H134v20.7h4.2C144.6,149.9,148.5,145.9,148.5,139.5z"/>
		<path class="st1" d="M185.1,124.4v17.8c0,4-0.6,7-2.7,9.4c-2.1,2.4-5.2,3.6-9.5,3.6s-7.4-1.3-9.5-3.6c-2.1-2.3-2.7-5.4-2.7-9.4
			v-17.8h5.8V142c0,2.3,0.1,4.4,1.3,5.9c2.5,2.8,6.8,3.1,9.7,0.6c0.2-0.2,0.4-0.4,0.6-0.6c1.2-1.5,1.3-3.6,1.3-5.9v-17.6H185.1z"/>
		<path class="st1" d="M207.3,155.2c-8.9,0-15.8-6-15.8-15.7s6.9-15.7,15.8-15.7c5.9,0,9.4,2.5,10.6,3.7l-2,4.7
			c-0.9-1.1-4.3-3.5-8.6-3.5c-5.3,0-9.8,3.5-9.8,10.6c0,6.6,4.1,10.8,10.2,10.8c3.3,0.1,6.4-1.3,8.7-3.7l2,4.3
			C216.6,152.8,213.3,155.2,207.3,155.2z"/>
		<path class="st1" d="M224.3,124.4h5.7v30.4h-5.7L224.3,124.4z"/>
		<path class="st1" d="M255.6,147.8h-11.9l-2.6,7h-5.9l11.9-30.4h5.5l11.9,30.4h-6.2L255.6,147.8z M245.1,143.2h9.1l-4.5-12.3
			L245.1,143.2z"/>
		<path class="st1" d="M278.2,142.4h-2.7v12.4h-5.7v-30.4h9.8c5.5,0,10.9,2.6,10.9,8.8c0,5.2-2.9,7.3-6.6,8.5l8.2,13.1h-6.7
			L278.2,142.4z M282.7,136.9c1.2-0.8,1.8-2.1,1.8-3.6c0-3.7-3-4.5-6.1-4.5h-3v9.1h3C280.2,137.9,281.6,137.8,282.7,136.9z"/>
		<path class="st1" d="M297,124.4h5.7v30.4H297V124.4z"/>
		<path class="st1" d="M309.4,139.6c0-9.8,7.1-15.7,15.9-15.7s15.9,5.9,15.9,15.7c0,9.8-7.1,15.7-15.9,15.7S309.4,149.3,309.4,139.6
			z M325.2,128.9c-5.6,0-10,4.1-10,10.7c0,6.6,4.4,10.7,10,10.7s10-4.1,10-10.7S330.9,128.9,325.2,128.9z"/>
	</g>
</g>
</svg>
